<svg xmlns="http://www.w3.org/2000/svg" viewBox="0 0 432 120" width="432" height="120" fill="none" role="img" aria-label="beheld">
  <title>beheld</title>
  <!-- mark: brackets in ink, "#" cursor in signal green -->
  <g stroke="#0a0b0b" stroke-width="7" stroke-linecap="square" stroke-linejoin="miter">
    <path d="M46 28 H30 V92 H46"/>
    <path d="M74 28 H90 V92 H74"/>
  </g>
  <g stroke="#58d36c" stroke-width="6" fill="none">
    <path d="M53 43V77"/>
    <path d="M67 43V77"/>
    <path d="M47 54H73"/>
    <path d="M47 66H73"/>
  </g>
  <!-- wordmark: JetBrains Mono outlines; the "b" carries the green highlight -->
  <g transform="translate(111.93 92) scale(0.8767)">
    <path d="M90 1Q80.30 1 74.35-4.85Q68.40-10.70 68.40-21L68.40-34Q68.40-44.30 74.35-50.15Q80.30-56 90-56Q96.50-56 101.35-53.40Q106.20-50.80 108.90-46.10Q111.60-41.40 111.60-35L111.60-25.20L77.20-25.20L77.20-20Q77.20-13.90 80.70-10.35Q84.20-6.80 90-6.80Q95-6.80 98.25-8.75Q101.50-10.70 102.20-14L111.20-14Q110.30-7.10 104.50-3.05Q98.70 1 90 1M77.20-35L77.20-32.20L102.80-32.20L102.80-35Q102.80-41.50 99.45-45.05Q96.10-48.60 90-48.60Q83.90-48.60 80.55-45.05Q77.20-41.50 77.20-35M138.20 0L129.20 0L129.20-73L138.20-73L138.20-44.50L138.30-44.50Q139-50 142.80-53Q146.60-56 152.90-56Q161.20-56 166.10-50.90Q171-45.80 171-37L171 0L162 0L162-35.50Q162-41.70 158.85-45.05Q155.70-48.40 150.30-48.40Q144.70-48.40 141.45-44.90Q138.20-41.40 138.20-35L138.20 0M210 1Q200.30 1 194.35-4.85Q188.40-10.70 188.40-21L188.40-34Q188.40-44.30 194.35-50.15Q200.30-56 210-56Q216.50-56 221.35-53.40Q226.20-50.80 228.90-46.10Q231.60-41.40 231.60-35L231.60-25.20L197.20-25.20L197.20-20Q197.20-13.90 200.70-10.35Q204.20-6.80 210-6.80Q215-6.80 218.25-8.75Q221.50-10.70 222.20-14L231.20-14Q230.30-7.10 224.50-3.05Q218.70 1 210 1M197.20-35L197.20-32.20L222.80-32.20L222.80-35Q222.80-41.50 219.45-45.05Q216.10-48.60 210-48.60Q203.90-48.60 200.55-45.05Q197.20-41.50 197.20-35M295 0L278 0Q270.70 0 266.35-4.25Q262-8.50 262-15.50L262-64.80L243-64.80L243-73L271-73L271-15.50Q271-12.10 272.90-10.15Q274.80-8.20 278-8.20L295-8.20L295 0M326.80 1Q318.60 1 313.65-4.50Q308.70-10 308.70-19.40L308.70-35.50Q308.70-45 313.60-50.50Q318.50-56 326.80-56Q333-56 337.05-52.90Q341.10-49.80 341.90-44.50L342-44.50L341.80-57L341.80-73L350.80-73L350.80 0L341.80 0L341.80-10.50L341.70-10.50Q341-5.10 337-2.05Q333 1 326.80 1M329.80-6.80Q335.40-6.80 338.60-10.30Q341.80-13.80 341.80-20L341.80-35Q341.80-41.20 338.60-44.70Q335.40-48.20 329.80-48.20Q324.10-48.20 320.90-45.25Q317.70-42.30 317.70-35.50L317.70-19.50Q317.70-12.80 320.90-9.80Q324.10-6.80 329.80-6.80" fill="#0a0b0b"/>
    <path d="M33.20 1Q27 1 23-2.05Q19-5.10 18.30-10.50L18.20-10.50L18.20 0L9.20 0L9.20-73L18.20-73L18.20-57L18-44.50L18.10-44.50Q18.90-49.80 22.95-52.90Q27-56 33.20-56Q41.50-56 46.40-50.50Q51.30-45 51.30-35.50L51.30-19.40Q51.30-10 46.40-4.50Q41.50 1 33.20 1M30.20-6.80Q35.90-6.80 39.10-9.80Q42.30-12.80 42.30-19.50L42.30-35.50Q42.30-42.30 39.10-45.25Q35.90-48.20 30.20-48.20Q24.70-48.20 21.45-44.70Q18.20-41.20 18.20-35L18.20-20Q18.20-13.80 21.45-10.30Q24.70-6.80 30.20-6.80" fill="#1f9a37"/>
  </g>
</svg>
